<?xml version="1.0" encoding="utf-8"?>
<!-- Generator: Adobe Illustrator 23.0.0, SVG Export Plug-In . SVG Version: 6.00 Build 0)  -->
<svg version="1.1" id="Layer_1" xmlns="http://www.w3.org/2000/svg" xmlns:xlink="http://www.w3.org/1999/xlink" x="0px" y="0px"
	 viewBox="0 0 500 500" style="enable-background:new 0 0 500 500;" xml:space="preserve">
<style type="text/css">
	.st0{fill:#221F1F;}
	.st1{opacity:0.6;}
	.st2{fill:none;stroke:#FFFFFF;stroke-width:3;stroke-linecap:round;stroke-linejoin:round;stroke-miterlimit:10;}
	.st3{fill:none;stroke:#221F1F;stroke-width:6;stroke-miterlimit:10;}
	.st4{fill:none;stroke:#FFFFFF;stroke-width:6;stroke-miterlimit:10;}
	.st5{fill:#FFFFFF;}
	.st6{fill:none;stroke:#FFFFFF;stroke-width:6;stroke-linecap:round;stroke-linejoin:round;stroke-miterlimit:10;}
	.st7{opacity:0.6;fill:none;stroke:#FFFFFF;stroke-width:3;stroke-linecap:round;stroke-linejoin:round;stroke-miterlimit:10;}
	.st8{opacity:0.25;fill:none;stroke:#FFFFFF;stroke-width:3;stroke-linecap:round;stroke-linejoin:round;stroke-miterlimit:10;}
	.st9{opacity:0.35;fill:none;stroke:#FFFFFF;stroke-width:3;stroke-linecap:round;stroke-linejoin:round;stroke-miterlimit:10;}
	.st10{opacity:0.45;fill:none;stroke:#FFFFFF;stroke-width:3;stroke-linecap:round;stroke-linejoin:round;stroke-miterlimit:10;}
	.st11{opacity:0.55;fill:none;stroke:#FFFFFF;stroke-width:4;stroke-linecap:round;stroke-linejoin:round;stroke-miterlimit:10;}
	.st12{opacity:0.65;fill:none;stroke:#FFFFFF;stroke-width:5;stroke-linecap:round;stroke-linejoin:round;stroke-miterlimit:10;}
	.st13{opacity:0.75;fill:none;stroke:#FFFFFF;stroke-width:6;stroke-linecap:round;stroke-linejoin:round;stroke-miterlimit:10;}
	.st14{opacity:0.25;}
	.st15{opacity:0.35;}
	.st16{opacity:0.45;}
	.st17{opacity:0.55;}
	.st18{opacity:0.65;}
	.st19{opacity:0.75;}
	.st20{fill:#33CC00;}
	.st21{fill:#25313E;}
	.st22{opacity:0.85;}
	.st23{opacity:0.85;fill:#FFFFFF;}
	.st24{fill:#A6A7AA;}
	.st25{opacity:0.9;fill:none;stroke:#FFFFFF;stroke-width:6;stroke-linecap:round;stroke-linejoin:round;stroke-miterlimit:10;}
	.st26{opacity:0.8;fill:none;stroke:#FFFFFF;stroke-width:4;stroke-linecap:round;stroke-linejoin:round;stroke-miterlimit:10;}
	.st27{opacity:0.7;fill:none;stroke:#FFFFFF;stroke-width:3;stroke-linecap:round;stroke-linejoin:round;stroke-miterlimit:10;}
	.st28{opacity:0.9;}
	.st29{opacity:0.8;}
	.st30{opacity:0.7;}
	.st31{fill:#11365A;}
	.st32{fill:#0B1C2D;}
	.st33{opacity:0.5;}
	.st34{fill:none;stroke:#FFFFFF;stroke-width:3;stroke-miterlimit:10;}
	.st35{fill:none;stroke:#FFFFFF;stroke-width:6;stroke-linecap:round;stroke-miterlimit:10;}
	.st36{fill:#999999;}
	.st37{fill:#CFD1D2;}
	.st38{fill:#414141;}
	.st39{fill:#FF0000;}
	.st40{fill:#FFFFFF;stroke:#FFFFFF;stroke-width:6;stroke-linecap:round;stroke-linejoin:round;stroke-miterlimit:10;}
	.st41{fill:#FB7878;}
	.st42{fill:#0DCCFF;}
	.st43{fill:#0099FF;}
	.st44{fill:none;stroke:#FFFFFF;stroke-width:9;stroke-linecap:round;stroke-miterlimit:10;}
	.st45{fill:#F7931E;}
	.st46{fill:#EBEBEB;}
	.st47{fill:#10365A;}
	.st48{display:none;}
	.st49{display:inline;}
	.st50{fill:none;stroke:#F7931E;stroke-width:2;stroke-miterlimit:10;}
	.st51{fill:none;stroke:#F7931E;stroke-miterlimit:10;}
	.st52{fill:none;stroke:#F7931E;stroke-width:2;stroke-linejoin:round;stroke-miterlimit:10;}
	.st53{fill:none;stroke:#F7931E;stroke-width:35;stroke-linecap:round;stroke-miterlimit:10;}
</style>
<g>
	<path class="st45" d="M250.53,212.36c2.86-5.27,5.38-9.91,7.9-14.57c20.76-38.47,41.55-76.92,62.26-115.42
		c2.45-4.55,5.86-7.37,11.12-7.37c8.92-0.01,14.38,9.24,10.15,17.36c-4.86,9.31-9.96,18.5-14.96,27.74
		c-35.61,65.72-71.2,131.45-106.92,197.11c-1.71,3.15-1.33,4.76,1.17,7.18c17.67,17.17,22.55,43.39,12.5,65.83
		c-9.96,22.24-32.86,36.14-57.11,34.67c-29.95-1.81-54.21-26.5-55.22-56.17c-1.04-30.67,20.72-56.53,50.92-60.72
		c7.59-1.05,14.96-0.39,22.2,1.79c2.25,0.68,3.35,0.44,4.52-1.75c12.22-22.77,24.51-45.5,36.92-68.17c1.22-2.22,0.65-3.71-0.37-5.6
		c-25.28-46.59-50.52-93.21-75.81-139.8c-1.86-3.43-3-6.88-1.77-10.73c1.56-4.87,5.03-7.72,10.01-8.25
		c5.18-0.54,9.15,1.77,11.66,6.36c6.65,12.19,13.25,24.41,19.87,36.62c16.27,30.05,32.54,60.11,48.81,90.16
		C248.93,209.68,249.56,210.69,250.53,212.36z M180.82,400.33c19.04,0.03,34.72-15.49,34.82-34.45
		c0.1-19.46-15.46-35.18-34.82-35.19c-19.21,0-34.82,15.6-34.82,34.82C146.01,384.73,161.58,400.3,180.82,400.33z"/>
	<path class="st45" d="M262.57,362.02c0.14-12.83,6.02-26.94,17.93-38.4c1.93-1.85,2.16-3.13,0.86-5.45
		c-5.09-9.04-9.97-18.2-14.89-27.34c-3.66-6.8-2.04-13.59,3.98-16.89c6.08-3.33,12.67-1.03,16.37,5.76
		c5.08,9.32,10.2,18.63,15.13,28.03c1.07,2.04,2.16,2.32,4.23,1.79c32.07-8.15,63.96,11.35,71.06,43.4
		c7.12,32.1-13.88,63.72-46.31,69.74C295.55,429.23,262.69,401.85,262.57,362.02z M354.94,365.29
		c-0.06-19.15-15.8-34.68-35.04-34.59c-19.18,0.09-34.65,15.76-34.59,35.04c0.06,19.15,15.81,34.7,35.04,34.6
		C339.53,400.23,355,384.57,354.94,365.29z"/>
</g>
</svg>
