<?xml version="1.0" encoding="utf-8"?>
<!-- Generator: Adobe Illustrator 23.0.0, SVG Export Plug-In . SVG Version: 6.00 Build 0)  -->
<svg version="1.1" id="Layer_1" xmlns="http://www.w3.org/2000/svg" xmlns:xlink="http://www.w3.org/1999/xlink" x="0px" y="0px"
	 viewBox="0 0 500 500" style="enable-background:new 0 0 500 500;" xml:space="preserve">
<style type="text/css">
	.st0{fill:#221F1F;}
	.st1{opacity:0.6;}
	.st2{fill:none;stroke:#FFFFFF;stroke-width:3;stroke-linecap:round;stroke-linejoin:round;stroke-miterlimit:10;}
	.st3{fill:none;stroke:#221F1F;stroke-width:6;stroke-miterlimit:10;}
	.st4{fill:none;stroke:#FFFFFF;stroke-width:6;stroke-miterlimit:10;}
	.st5{fill:#FFFFFF;}
	.st6{fill:none;stroke:#FFFFFF;stroke-width:6;stroke-linecap:round;stroke-linejoin:round;stroke-miterlimit:10;}
	.st7{opacity:0.6;fill:none;stroke:#FFFFFF;stroke-width:3;stroke-linecap:round;stroke-linejoin:round;stroke-miterlimit:10;}
	.st8{opacity:0.25;fill:none;stroke:#FFFFFF;stroke-width:3;stroke-linecap:round;stroke-linejoin:round;stroke-miterlimit:10;}
	.st9{opacity:0.35;fill:none;stroke:#FFFFFF;stroke-width:3;stroke-linecap:round;stroke-linejoin:round;stroke-miterlimit:10;}
	.st10{opacity:0.45;fill:none;stroke:#FFFFFF;stroke-width:3;stroke-linecap:round;stroke-linejoin:round;stroke-miterlimit:10;}
	.st11{opacity:0.55;fill:none;stroke:#FFFFFF;stroke-width:4;stroke-linecap:round;stroke-linejoin:round;stroke-miterlimit:10;}
	.st12{opacity:0.65;fill:none;stroke:#FFFFFF;stroke-width:5;stroke-linecap:round;stroke-linejoin:round;stroke-miterlimit:10;}
	.st13{opacity:0.75;fill:none;stroke:#FFFFFF;stroke-width:6;stroke-linecap:round;stroke-linejoin:round;stroke-miterlimit:10;}
	.st14{opacity:0.25;}
	.st15{opacity:0.35;}
	.st16{opacity:0.45;}
	.st17{opacity:0.55;}
	.st18{opacity:0.65;}
	.st19{opacity:0.75;}
	.st20{fill:#33CC00;}
	.st21{fill:#25313E;}
	.st22{opacity:0.85;}
	.st23{opacity:0.85;fill:#FFFFFF;}
	.st24{fill:#A6A7AA;}
	.st25{opacity:0.9;fill:none;stroke:#FFFFFF;stroke-width:6;stroke-linecap:round;stroke-linejoin:round;stroke-miterlimit:10;}
	.st26{opacity:0.8;fill:none;stroke:#FFFFFF;stroke-width:4;stroke-linecap:round;stroke-linejoin:round;stroke-miterlimit:10;}
	.st27{opacity:0.7;fill:none;stroke:#FFFFFF;stroke-width:3;stroke-linecap:round;stroke-linejoin:round;stroke-miterlimit:10;}
	.st28{opacity:0.9;}
	.st29{opacity:0.8;}
	.st30{opacity:0.7;}
	.st31{fill:#11365A;}
	.st32{fill:#0B1C2D;}
	.st33{opacity:0.5;}
	.st34{fill:none;stroke:#FFFFFF;stroke-width:3;stroke-miterlimit:10;}
	.st35{fill:none;stroke:#FFFFFF;stroke-width:6;stroke-linecap:round;stroke-miterlimit:10;}
	.st36{fill:#999999;}
	.st37{fill:#CFD1D2;}
	.st38{fill:#414141;}
	.st39{fill:#FF0000;}
	.st40{fill:#FFFFFF;stroke:#FFFFFF;stroke-width:6;stroke-linecap:round;stroke-linejoin:round;stroke-miterlimit:10;}
	.st41{fill:#FB7878;}
	.st42{fill:#0DCCFF;}
	.st43{fill:#0099FF;}
	.st44{fill:none;stroke:#FFFFFF;stroke-width:9;stroke-linecap:round;stroke-miterlimit:10;}
	.st45{fill:#F7931E;}
	.st46{fill:#EBEBEB;}
	.st47{fill:#10365A;}
	.st48{display:none;}
	.st49{display:inline;}
	.st50{fill:none;stroke:#F7931E;stroke-width:2;stroke-miterlimit:10;}
	.st51{fill:none;stroke:#F7931E;stroke-miterlimit:10;}
	.st52{fill:none;stroke:#F7931E;stroke-width:2;stroke-linejoin:round;stroke-miterlimit:10;}
	.st53{fill:none;stroke:#F7931E;stroke-width:35;stroke-linecap:round;stroke-miterlimit:10;}
</style>
<g>
	<g>
		<path class="st45" d="M314.86,332.03c14.89,21.05,47.35,66.78,48.73,68.85c5.02,7.53,3.7,16.25-3.12,21.04
			c-6.76,4.74-15.72,3.15-20.92-4.03c-10.09-13.94-38.68-54.13-43.48-60.84c-2.15,2.57-34.33,42.73-48.63,60.58
			c-6.46,8.07-14.88,9.62-21.86,4.15c-7.27-5.7-7.67-14.3-0.98-22.71c17.77-22.32,35.56-44.61,53.61-67.26
			c-10.63-14.84-61.39-85.33-76.04-106.03c-2.61-3.69-5.31-5.5-9.99-5.32c-9.47,0.36-18.95,0.11-29.41,0.11
			c0,3.22,0.01,49.65-0.04,70.26c-0.02,10.32-5.67,16.69-14.61,16.67c-9.07-0.02-14.67-6.15-14.68-16.59
			c-0.06-66.36-0.07-132.73-0.03-199.09c0.01-10.44,5.15-16.42,14.73-16.51c21.06-0.2,42.15-0.66,63.18,0.21
			c33.02,1.37,60.82,25.79,66.87,57.52c6.34,33.27-9.83,65.63-40,80.04c-2,0.95-3.99,1.91-6.54,3.13
			c21.83,30.24,43.35,60.05,65.36,90.55c2.32-2.77,29.4-36.59,41.37-51.38c6.45-7.97,15.05-9.29,21.94-3.68
			c6.79,5.53,7.29,14.37,1,22.28C345.96,293.27,330.5,312.5,314.86,332.03z M163.1,105.5c0,28.18,0,56.58,0,85.42
			c16.15,0,32.04,1.12,47.71-0.27c21.91-1.94,37.85-20.07,38.55-41.43c0.7-21.08-13.82-40.61-35.26-43.31
			C197.47,103.82,180.36,105.5,163.1,105.5z"/>
	</g>
</g>
</svg>
