<?xml version="1.0" encoding="utf-8"?>
<!-- Generator: Adobe Illustrator 23.0.0, SVG Export Plug-In . SVG Version: 6.00 Build 0)  -->
<svg version="1.1" id="Layer_1" xmlns="http://www.w3.org/2000/svg" xmlns:xlink="http://www.w3.org/1999/xlink" x="0px" y="0px"
	 viewBox="0 0 500 500" style="enable-background:new 0 0 500 500;" xml:space="preserve">
<style type="text/css">
	.st0{fill:#221F1F;}
	.st1{opacity:0.6;}
	.st2{fill:none;stroke:#FFFFFF;stroke-width:3;stroke-linecap:round;stroke-linejoin:round;stroke-miterlimit:10;}
	.st3{fill:none;stroke:#221F1F;stroke-width:6;stroke-miterlimit:10;}
	.st4{fill:none;stroke:#FFFFFF;stroke-width:6;stroke-miterlimit:10;}
	.st5{fill:#FFFFFF;}
	.st6{fill:none;stroke:#FFFFFF;stroke-width:6;stroke-linecap:round;stroke-linejoin:round;stroke-miterlimit:10;}
	.st7{opacity:0.6;fill:none;stroke:#FFFFFF;stroke-width:3;stroke-linecap:round;stroke-linejoin:round;stroke-miterlimit:10;}
	.st8{opacity:0.25;fill:none;stroke:#FFFFFF;stroke-width:3;stroke-linecap:round;stroke-linejoin:round;stroke-miterlimit:10;}
	.st9{opacity:0.35;fill:none;stroke:#FFFFFF;stroke-width:3;stroke-linecap:round;stroke-linejoin:round;stroke-miterlimit:10;}
	.st10{opacity:0.45;fill:none;stroke:#FFFFFF;stroke-width:3;stroke-linecap:round;stroke-linejoin:round;stroke-miterlimit:10;}
	.st11{opacity:0.55;fill:none;stroke:#FFFFFF;stroke-width:4;stroke-linecap:round;stroke-linejoin:round;stroke-miterlimit:10;}
	.st12{opacity:0.65;fill:none;stroke:#FFFFFF;stroke-width:5;stroke-linecap:round;stroke-linejoin:round;stroke-miterlimit:10;}
	.st13{opacity:0.75;fill:none;stroke:#FFFFFF;stroke-width:6;stroke-linecap:round;stroke-linejoin:round;stroke-miterlimit:10;}
	.st14{opacity:0.25;}
	.st15{opacity:0.35;}
	.st16{opacity:0.45;}
	.st17{opacity:0.55;}
	.st18{opacity:0.65;}
	.st19{opacity:0.75;}
	.st20{fill:#33CC00;}
	.st21{fill:#25313E;}
	.st22{opacity:0.85;}
	.st23{opacity:0.85;fill:#FFFFFF;}
	.st24{fill:#A6A7AA;}
	.st25{opacity:0.9;fill:none;stroke:#FFFFFF;stroke-width:6;stroke-linecap:round;stroke-linejoin:round;stroke-miterlimit:10;}
	.st26{opacity:0.8;fill:none;stroke:#FFFFFF;stroke-width:4;stroke-linecap:round;stroke-linejoin:round;stroke-miterlimit:10;}
	.st27{opacity:0.7;fill:none;stroke:#FFFFFF;stroke-width:3;stroke-linecap:round;stroke-linejoin:round;stroke-miterlimit:10;}
	.st28{opacity:0.9;}
	.st29{opacity:0.8;}
	.st30{opacity:0.7;}
	.st31{fill:#11365A;}
	.st32{fill:#0B1C2D;}
	.st33{opacity:0.5;}
	.st34{fill:none;stroke:#FFFFFF;stroke-width:3;stroke-miterlimit:10;}
	.st35{fill:none;stroke:#FFFFFF;stroke-width:6;stroke-linecap:round;stroke-miterlimit:10;}
	.st36{fill:#999999;}
	.st37{fill:#CFD1D2;}
	.st38{fill:#414141;}
	.st39{fill:#FF0000;}
	.st40{fill:#FFFFFF;stroke:#FFFFFF;stroke-width:6;stroke-linecap:round;stroke-linejoin:round;stroke-miterlimit:10;}
	.st41{fill:#FB7878;}
	.st42{fill:#0DCCFF;}
	.st43{fill:#0099FF;}
	.st44{fill:none;stroke:#FFFFFF;stroke-width:9;stroke-linecap:round;stroke-miterlimit:10;}
	.st45{fill:#F7931E;}
	.st46{fill:#EBEBEB;}
	.st47{fill:#10365A;}
	.st48{display:none;}
	.st49{display:inline;}
	.st50{fill:none;stroke:#F7931E;stroke-width:2;stroke-miterlimit:10;}
	.st51{fill:none;stroke:#F7931E;stroke-miterlimit:10;}
	.st52{fill:none;stroke:#F7931E;stroke-width:2;stroke-linejoin:round;stroke-miterlimit:10;}
	.st53{fill:none;stroke:#F7931E;stroke-width:35;stroke-linecap:round;stroke-miterlimit:10;}
</style>
<g>
	<path class="st45" d="M207.41,129.96v29h-30v181.87h30v29.2h-93.44v-29.58h30v-181.5h-30v-29H207.41z"/>
	<path class="st45" d="M239.75,204.95h31.35v25.43h0.7c3.95-8.82,10.8-15.96,20.55-21.42c9.75-5.45,21.01-8.18,33.78-8.18
		c7.89,0,15.5,1.22,22.81,3.66c7.31,2.44,13.7,6.22,19.16,11.32c5.45,5.11,9.81,11.67,13.06,19.68c3.25,8.01,4.88,17.47,4.88,28.39
		v106.23h-31.35v-97.52c0-7.66-1.04-14.22-3.13-19.68c-2.09-5.45-4.88-9.87-8.36-13.23c-3.48-3.36-7.49-5.8-12.02-7.31
		c-4.53-1.51-9.23-2.26-14.11-2.26c-6.5,0-12.54,1.04-18.11,3.13c-5.57,2.09-10.45,5.4-14.63,9.93c-4.18,4.53-7.43,10.27-9.75,17.24
		c-2.32,6.97-3.48,15.21-3.48,24.73v84.98h-31.35V204.95z"/>
</g>
</svg>
