<?xml version="1.0" encoding="utf-8"?>
<!-- Generator: Adobe Illustrator 23.0.0, SVG Export Plug-In . SVG Version: 6.00 Build 0)  -->
<svg version="1.1" id="Layer_1" xmlns="http://www.w3.org/2000/svg" xmlns:xlink="http://www.w3.org/1999/xlink" x="0px" y="0px"
	 viewBox="0 0 500 500" style="enable-background:new 0 0 500 500;" xml:space="preserve">
<style type="text/css">
	.st0{fill:#221F1F;}
	.st1{opacity:0.6;}
	.st2{fill:none;stroke:#FFFFFF;stroke-width:3;stroke-linecap:round;stroke-linejoin:round;stroke-miterlimit:10;}
	.st3{fill:none;stroke:#221F1F;stroke-width:6;stroke-miterlimit:10;}
	.st4{fill:none;stroke:#FFFFFF;stroke-width:6;stroke-miterlimit:10;}
	.st5{fill:#FFFFFF;}
	.st6{fill:none;stroke:#FFFFFF;stroke-width:6;stroke-linecap:round;stroke-linejoin:round;stroke-miterlimit:10;}
	.st7{opacity:0.6;fill:none;stroke:#FFFFFF;stroke-width:3;stroke-linecap:round;stroke-linejoin:round;stroke-miterlimit:10;}
	.st8{opacity:0.25;fill:none;stroke:#FFFFFF;stroke-width:3;stroke-linecap:round;stroke-linejoin:round;stroke-miterlimit:10;}
	.st9{opacity:0.35;fill:none;stroke:#FFFFFF;stroke-width:3;stroke-linecap:round;stroke-linejoin:round;stroke-miterlimit:10;}
	.st10{opacity:0.45;fill:none;stroke:#FFFFFF;stroke-width:3;stroke-linecap:round;stroke-linejoin:round;stroke-miterlimit:10;}
	.st11{opacity:0.55;fill:none;stroke:#FFFFFF;stroke-width:4;stroke-linecap:round;stroke-linejoin:round;stroke-miterlimit:10;}
	.st12{opacity:0.65;fill:none;stroke:#FFFFFF;stroke-width:5;stroke-linecap:round;stroke-linejoin:round;stroke-miterlimit:10;}
	.st13{opacity:0.75;fill:none;stroke:#FFFFFF;stroke-width:6;stroke-linecap:round;stroke-linejoin:round;stroke-miterlimit:10;}
	.st14{opacity:0.25;}
	.st15{opacity:0.35;}
	.st16{opacity:0.45;}
	.st17{opacity:0.55;}
	.st18{opacity:0.65;}
	.st19{opacity:0.75;}
	.st20{fill:#33CC00;}
	.st21{fill:#25313E;}
	.st22{opacity:0.85;}
	.st23{opacity:0.85;fill:#FFFFFF;}
	.st24{fill:#A6A7AA;}
	.st25{opacity:0.9;fill:none;stroke:#FFFFFF;stroke-width:6;stroke-linecap:round;stroke-linejoin:round;stroke-miterlimit:10;}
	.st26{opacity:0.8;fill:none;stroke:#FFFFFF;stroke-width:4;stroke-linecap:round;stroke-linejoin:round;stroke-miterlimit:10;}
	.st27{opacity:0.7;fill:none;stroke:#FFFFFF;stroke-width:3;stroke-linecap:round;stroke-linejoin:round;stroke-miterlimit:10;}
	.st28{opacity:0.9;}
	.st29{opacity:0.8;}
	.st30{opacity:0.7;}
	.st31{fill:#11365A;}
	.st32{fill:#0B1C2D;}
	.st33{opacity:0.5;}
	.st34{fill:none;stroke:#FFFFFF;stroke-width:3;stroke-miterlimit:10;}
	.st35{fill:none;stroke:#FFFFFF;stroke-width:6;stroke-linecap:round;stroke-miterlimit:10;}
	.st36{fill:#999999;}
	.st37{fill:#CFD1D2;}
	.st38{fill:#414141;}
	.st39{fill:#FF0000;}
	.st40{fill:#FFFFFF;stroke:#FFFFFF;stroke-width:6;stroke-linecap:round;stroke-linejoin:round;stroke-miterlimit:10;}
	.st41{fill:#FB7878;}
	.st42{fill:#0DCCFF;}
	.st43{fill:#0099FF;}
	.st44{fill:none;stroke:#FFFFFF;stroke-width:9;stroke-linecap:round;stroke-miterlimit:10;}
	.st45{fill:#F7931E;}
	.st46{fill:#EBEBEB;}
	.st47{fill:#10365A;}
	.st48{display:none;}
	.st49{display:inline;}
	.st50{fill:none;stroke:#F7931E;stroke-width:2;stroke-miterlimit:10;}
	.st51{fill:none;stroke:#F7931E;stroke-miterlimit:10;}
	.st52{fill:none;stroke:#F7931E;stroke-width:2;stroke-linejoin:round;stroke-miterlimit:10;}
	.st53{fill:none;stroke:#F7931E;stroke-width:35;stroke-linecap:round;stroke-miterlimit:10;}
</style>
<path class="st5" d="M252.91,148.6c22.7,0,41.18-18.47,41.18-41.18s-18.47-41.18-41.18-41.18c-22.71,0-41.18,18.47-41.18,41.18
	S230.21,148.6,252.91,148.6z M252.91,86c11.81,0,21.43,9.61,21.43,21.43c0,11.82-9.61,21.43-21.43,21.43
	c-11.82,0-21.43-9.61-21.43-21.43C231.48,95.61,241.1,86,252.91,86z M316.91,423.87c0,5.45-4.42,9.87-9.87,9.87H280.4
	c-0.02,0-0.03,0-0.05,0c-0.34,0-0.67-0.02-1-0.05c-0.01,0-0.03,0-0.04-0.01c-0.3-0.03-0.6-0.08-0.89-0.14
	c-0.08-0.02-0.16-0.04-0.25-0.06c-0.22-0.05-0.43-0.1-0.65-0.17c-0.11-0.03-0.22-0.07-0.34-0.11c-0.18-0.06-0.35-0.12-0.53-0.19
	c-0.13-0.05-0.25-0.11-0.37-0.16c-0.15-0.07-0.31-0.14-0.46-0.22c-0.13-0.07-0.25-0.13-0.37-0.2c-0.14-0.08-0.28-0.16-0.42-0.25
	c-0.12-0.08-0.24-0.16-0.36-0.24c-0.13-0.09-0.26-0.19-0.39-0.29c-0.11-0.09-0.22-0.17-0.33-0.26c-0.13-0.11-0.25-0.23-0.38-0.34
	c-0.1-0.09-0.2-0.18-0.29-0.28c-0.13-0.13-0.25-0.27-0.36-0.4c-0.08-0.09-0.17-0.18-0.24-0.28c-0.12-0.15-0.23-0.31-0.35-0.47
	c-0.07-0.09-0.14-0.18-0.2-0.27c-0.12-0.17-0.22-0.36-0.33-0.54c-0.14-0.25-0.28-0.5-0.4-0.76c-0.05-0.1-0.1-0.19-0.14-0.29
	c-0.09-0.21-0.16-0.42-0.24-0.64c-0.03-0.08-0.06-0.15-0.08-0.23c-0.07-0.22-0.13-0.44-0.18-0.67c-0.02-0.08-0.04-0.15-0.06-0.23
	c-0.05-0.22-0.08-0.44-0.12-0.67c-0.01-0.07-0.03-0.14-0.04-0.22l-0.02-0.18c0-0.02-0.01-0.05-0.01-0.07l-24.6-193.55
	c-0.69-5.41,3.14-10.35,8.55-11.04c5.42-0.69,10.35,3.14,11.04,8.55L289.06,414h17.98C312.49,414,316.91,418.42,316.91,423.87z
	 M338.61,311.21c-1.21,0.48-2.45,0.71-3.68,0.71c-3.91,0-7.62-2.34-9.17-6.19l-31.15-77.48c-9.49-23.6-18.43-38.73-33.69-41.25
	c-4.87-0.77-37.94-0.65-42.63,0.15c-17.92,3.35-30.56,22.77-41.97,42.38l-0.35,0.6l20.14,52.11c1.97,5.09-0.56,10.81-5.65,12.77
	c-5.08,1.96-10.8-0.56-12.77-5.65l-21.86-56.53c-1.08-2.8-0.83-5.93,0.67-8.52l2.73-4.7c13.11-22.54,29.29-46.99,55.43-51.87
	c7.05-1.32,43.19-1.25,49.46-0.22c27.02,4.46,39.36,29.88,48.8,53.37l31.15,77.48C346.13,303.43,343.67,309.18,338.61,311.21z
	 M243.58,322.49l-31.01,91.51h12.91c5.45,0,9.87,4.42,9.87,9.87s-4.42,9.87-9.87,9.87h-26.61c-0.02,0-0.05,0.01-0.07,0.01
	c-0.32,0-0.65-0.02-0.98-0.05c-0.04,0-0.08-0.01-0.12-0.01c-0.25-0.03-0.51-0.07-0.76-0.12c-0.09-0.02-0.18-0.04-0.27-0.06
	c-0.2-0.04-0.39-0.09-0.58-0.15c-0.11-0.03-0.23-0.06-0.34-0.1c-0.04-0.01-0.08-0.02-0.12-0.04c-0.1-0.03-0.19-0.08-0.28-0.11
	c-0.18-0.07-0.36-0.13-0.53-0.21c-0.15-0.06-0.29-0.14-0.43-0.21c-0.14-0.07-0.28-0.14-0.42-0.22c-0.16-0.09-0.32-0.19-0.48-0.29
	c-0.11-0.07-0.21-0.13-0.31-0.2c-0.17-0.12-0.33-0.24-0.5-0.37c-0.08-0.07-0.17-0.13-0.25-0.2c-0.16-0.14-0.31-0.28-0.47-0.42
	c-0.08-0.08-0.16-0.15-0.23-0.23c-0.14-0.14-0.27-0.29-0.4-0.44c-0.08-0.09-0.16-0.19-0.24-0.28c-0.11-0.14-0.22-0.29-0.32-0.43
	c-0.08-0.12-0.17-0.24-0.25-0.36c-0.09-0.13-0.17-0.27-0.25-0.41c-0.08-0.14-0.16-0.29-0.24-0.43c-0.07-0.13-0.13-0.26-0.19-0.39
	c-0.07-0.16-0.15-0.32-0.21-0.48c-0.05-0.13-0.1-0.27-0.15-0.4c-0.06-0.16-0.11-0.33-0.16-0.5c-0.04-0.15-0.08-0.3-0.12-0.46
	c-0.04-0.15-0.07-0.3-0.1-0.46c-0.04-0.18-0.06-0.37-0.08-0.56c-0.02-0.13-0.04-0.26-0.05-0.39c-0.02-0.22-0.03-0.43-0.03-0.65
	c0-0.08-0.01-0.16-0.01-0.24c0-0.03,0-0.06,0-0.09c0-0.21,0.02-0.42,0.03-0.63c0.01-0.13,0.02-0.26,0.03-0.39
	c0.02-0.16,0.05-0.31,0.07-0.47c0.03-0.18,0.06-0.36,0.1-0.54c0.02-0.1,0.05-0.21,0.08-0.31c0.06-0.23,0.12-0.45,0.19-0.67
	c0.01-0.02,0.01-0.04,0.02-0.07l35.44-104.56c1.75-5.17,7.36-7.94,12.52-6.18C242.56,311.72,245.33,317.32,243.58,322.49z"/>
</svg>
