<?xml version="1.0" encoding="utf-8"?>
<!-- Generator: Adobe Illustrator 23.0.0, SVG Export Plug-In . SVG Version: 6.00 Build 0)  -->
<svg version="1.1" id="Layer_1" xmlns="http://www.w3.org/2000/svg" xmlns:xlink="http://www.w3.org/1999/xlink" x="0px" y="0px"
	 viewBox="0 0 500 500" style="enable-background:new 0 0 500 500;" xml:space="preserve">
<style type="text/css">
	.st0{fill:#221F1F;}
	.st1{opacity:0.6;}
	.st2{fill:none;stroke:#FFFFFF;stroke-width:3;stroke-linecap:round;stroke-linejoin:round;stroke-miterlimit:10;}
	.st3{fill:none;stroke:#221F1F;stroke-width:6;stroke-miterlimit:10;}
	.st4{fill:none;stroke:#FFFFFF;stroke-width:6;stroke-miterlimit:10;}
	.st5{fill:#FFFFFF;}
	.st6{fill:none;stroke:#FFFFFF;stroke-width:6;stroke-linecap:round;stroke-linejoin:round;stroke-miterlimit:10;}
	.st7{opacity:0.6;fill:none;stroke:#FFFFFF;stroke-width:3;stroke-linecap:round;stroke-linejoin:round;stroke-miterlimit:10;}
	.st8{opacity:0.25;fill:none;stroke:#FFFFFF;stroke-width:3;stroke-linecap:round;stroke-linejoin:round;stroke-miterlimit:10;}
	.st9{opacity:0.35;fill:none;stroke:#FFFFFF;stroke-width:3;stroke-linecap:round;stroke-linejoin:round;stroke-miterlimit:10;}
	.st10{opacity:0.45;fill:none;stroke:#FFFFFF;stroke-width:3;stroke-linecap:round;stroke-linejoin:round;stroke-miterlimit:10;}
	.st11{opacity:0.55;fill:none;stroke:#FFFFFF;stroke-width:4;stroke-linecap:round;stroke-linejoin:round;stroke-miterlimit:10;}
	.st12{opacity:0.65;fill:none;stroke:#FFFFFF;stroke-width:5;stroke-linecap:round;stroke-linejoin:round;stroke-miterlimit:10;}
	.st13{opacity:0.75;fill:none;stroke:#FFFFFF;stroke-width:6;stroke-linecap:round;stroke-linejoin:round;stroke-miterlimit:10;}
	.st14{opacity:0.25;}
	.st15{opacity:0.35;}
	.st16{opacity:0.45;}
	.st17{opacity:0.55;}
	.st18{opacity:0.65;}
	.st19{opacity:0.75;}
	.st20{fill:#33CC00;}
	.st21{fill:#25313E;}
	.st22{opacity:0.85;}
	.st23{opacity:0.85;fill:#FFFFFF;}
	.st24{fill:#A6A7AA;}
	.st25{opacity:0.9;fill:none;stroke:#FFFFFF;stroke-width:6;stroke-linecap:round;stroke-linejoin:round;stroke-miterlimit:10;}
	.st26{opacity:0.8;fill:none;stroke:#FFFFFF;stroke-width:4;stroke-linecap:round;stroke-linejoin:round;stroke-miterlimit:10;}
	.st27{opacity:0.7;fill:none;stroke:#FFFFFF;stroke-width:3;stroke-linecap:round;stroke-linejoin:round;stroke-miterlimit:10;}
	.st28{opacity:0.9;}
	.st29{opacity:0.8;}
	.st30{opacity:0.7;}
	.st31{fill:#11365A;}
	.st32{fill:#0B1C2D;}
	.st33{opacity:0.5;}
	.st34{fill:none;stroke:#FFFFFF;stroke-width:3;stroke-miterlimit:10;}
	.st35{fill:none;stroke:#FFFFFF;stroke-width:6;stroke-linecap:round;stroke-miterlimit:10;}
	.st36{fill:#999999;}
	.st37{fill:#CFD1D2;}
	.st38{fill:#414141;}
	.st39{fill:#FF0000;}
	.st40{fill:#FFFFFF;stroke:#FFFFFF;stroke-width:6;stroke-linecap:round;stroke-linejoin:round;stroke-miterlimit:10;}
	.st41{fill:#FB7878;}
	.st42{fill:#0DCCFF;}
	.st43{fill:#0099FF;}
	.st44{fill:none;stroke:#FFFFFF;stroke-width:9;stroke-linecap:round;stroke-miterlimit:10;}
	.st45{fill:#F7931E;}
	.st46{fill:#EBEBEB;}
	.st47{fill:#10365A;}
	.st48{display:none;}
	.st49{display:inline;}
	.st50{fill:none;stroke:#F7931E;stroke-width:2;stroke-miterlimit:10;}
	.st51{fill:none;stroke:#F7931E;stroke-miterlimit:10;}
	.st52{fill:none;stroke:#F7931E;stroke-width:2;stroke-linejoin:round;stroke-miterlimit:10;}
	.st53{fill:none;stroke:#F7931E;stroke-width:35;stroke-linecap:round;stroke-miterlimit:10;}
</style>
<path class="st45" d="M268.68,194.96c-19.59,0-35.52,15.94-35.52,35.53c0,19.59,15.93,35.53,35.52,35.53
	c19.58,0,35.52-15.94,35.52-35.53C304.2,210.9,288.27,194.96,268.68,194.96z M268.68,257.07c-14.65,0-26.57-11.92-26.57-26.58
	c0-14.66,11.92-26.58,26.57-26.58c14.65,0,26.57,11.92,26.57,26.58C295.25,245.15,283.33,257.07,268.68,257.07z"/>
<g>
	<path class="st45" d="M292.35,275.18l-2.57-0.7c-0.01,0-0.01,0-0.02-0.01c-6.76-1.74-13.85-2.62-21.07-2.62
		c-7.04,0-13.98,0.84-20.64,2.51l-2.59,0.7c-26.17,7.51-43.8,27.07-43.89,48.69c-0.07,1-0.04,4.21,2.51,7.07
		c2.52,2.84,6.53,4.28,11.92,4.28h104.09c5.6,0,9.86-1.43,12.67-4.26c2.9-2.96,3.05-6.3,3.05-6.94
		C335.8,302.39,318.35,282.81,292.35,275.18z M326.38,324.56c-1.04,1.03-3.27,1.59-6.29,1.59H216c-3.02,0-4.68-0.65-5.22-1.26
		c-0.22-0.25-0.27-0.49-0.27-0.62l0.01-0.21l0-0.27c0.07-17.59,15.08-33.7,37.35-40.11l2.43-0.66c5.92-1.47,12.11-2.22,18.38-2.22
		c6.38,0,12.64,0.76,18.59,2.27l0.09,0.03l0.2,0.05l2.34,0.64c22.03,6.49,36.85,22.52,36.95,39.95
		C326.82,323.88,326.72,324.21,326.38,324.56z"/>
</g>
<g>
	<g>
		<path class="st45" d="M386.49,390.02H150.68c-12.46,0-36.01-6.49-36.01-31.05V121.09c0-0.26,0.01-0.53,0.04-0.78
			c-0.03-0.61-0.04-1.22-0.04-1.83c0-22.59,18.38-40.97,40.97-40.97h217.63c4.14,0,7.5,3.36,7.5,7.5s-3.36,7.5-7.5,7.5H155.64
			c-14.32,0-25.97,11.65-25.97,25.97c0,14.32,11.65,25.97,25.97,25.97h230.85c4.14,0,7.5,3.36,7.5,7.5v230.58
			C393.99,386.66,390.64,390.02,386.49,390.02z M129.67,150.14v208.83c0,15.44,18.89,16.04,21.04,16.05h228.28V159.44H155.64
			C145.79,159.44,136.74,155.95,129.67,150.14z"/>
	</g>
	<g>
		<path class="st45" d="M155.64,387.52c-2.76,0-5-2.24-5-5V151.94c0-2.76,2.24-5,5-5s5,2.24,5,5v230.58
			C160.64,385.28,158.4,387.52,155.64,387.52z"/>
	</g>
	<g>
		<path class="st45" d="M377.54,112.73H151.92c-2.76,0-5-2.24-5-5s2.24-5,5-5h225.62c2.76,0,5,2.24,5,5S380.3,112.73,377.54,112.73z
			"/>
	</g>
	<g>
		<path class="st45" d="M380.85,135.87H151.92c-2.76,0-5-2.24-5-5s2.24-5,5-5h228.93c2.76,0,5,2.24,5,5S383.61,135.87,380.85,135.87
			z"/>
	</g>
	<g>
		<path class="st45" d="M225.47,442.5c-1.57,0-3.13-0.49-4.44-1.45l-20.56-15.08l-22.91,15.27c-2.3,1.54-5.26,1.68-7.7,0.37
			s-3.96-3.85-3.96-6.61v-52.48c0-4.14,3.36-7.5,7.5-7.5s7.5,3.36,7.5,7.5v38.47l15.61-10.41c2.62-1.75,6.05-1.67,8.6,0.19
			l12.86,9.43v-37.68c0-4.14,3.36-7.5,7.5-7.5s7.5,3.36,7.5,7.5V435c0,2.83-1.59,5.41-4.11,6.69
			C227.79,442.23,226.63,442.5,225.47,442.5z"/>
	</g>
</g>
</svg>
